<svg width="15" height="16" viewBox="0 0 15 16" fill="none" xmlns="http://www.w3.org/2000/svg">
<path d="M3.5 1H1.75C1.26602 1 0.875 1.44687 0.875 2V3H4.375V2C4.375 1.44687 3.98398 1 3.5 1Z" fill="#EFEFEF"/>
<path d="M0.875 14C0.875 14.5531 1.26602 15 1.75 15H3.5C3.98398 15 4.375 14.5531 4.375 14V13H0.875V14Z" fill="#EFEFEF"/>
<path d="M4.375 4H0.875V12H4.375V4Z" fill="#EFEFEF"/>
<path d="M7.87501 1H6.12501C5.64102 1 5.25001 1.44687 5.25001 2V3H8.75001V2C8.75001 1.44687 8.35899 1 7.87501 1Z" fill="#EFEFEF"/>
<path d="M5.25001 14C5.25001 14.5531 5.64102 15 6.12501 15H7.87501C8.35899 15 8.75001 14.5531 8.75001 14V13H5.25001V14Z" fill="#EFEFEF"/>
<path d="M8.75001 4H5.25001V12H8.75001V4Z" fill="#EFEFEF"/>
<path d="M10.6936 1.10002L9.84591 1.35315C9.37833 1.49377 9.09669 2.03752 9.21973 2.5719L9.44122 3.54065L11.9815 2.7844L11.76 1.81565C11.6369 1.28127 11.1611 0.959396 10.6936 1.10002Z" fill="#EFEFEF"/>
<path d="M12.2024 3.75117L9.66193 4.50657L11.4245 12.249L13.965 11.4936L12.2024 3.75117Z" fill="#EFEFEF"/>
<path d="M11.8638 14.1844C11.9868 14.7188 12.4626 15.0407 12.9302 14.9001L13.7779 14.6469C14.2454 14.5063 14.5271 13.9626 14.404 13.4282L14.1826 12.4594L11.6423 13.2157L11.8638 14.1844Z" fill="#EFEFEF"/>
</svg>
