<svg width="21" height="22" viewBox="0 0 21 22" fill="none" xmlns="http://www.w3.org/2000/svg">
<g clip-path="url(#clip0_344_1423)">
<path fill-rule="evenodd" clip-rule="evenodd" d="M14.3182 1.92373H3.40909C2.60577 1.92373 1.95455 2.56115 1.95455 3.34746V16.161C1.95455 16.9473 2.60577 17.5847 3.40909 17.5847H7.92247C7.59189 16.8189 7.40909 15.9769 7.40909 15.0932C7.40909 11.5549 10.3396 8.68644 13.9545 8.68644C14.5854 8.68644 15.1955 8.77382 15.7727 8.93684V3.34746C15.7727 2.56115 15.1215 1.92373 14.3182 1.92373ZM17.2273 9.54356V3.34746C17.2273 1.77485 15.9248 0.5 14.3182 0.5H3.40909C1.80244 0.5 0.5 1.77485 0.5 3.34746V16.161C0.5 17.7336 1.80244 19.0085 3.40909 19.0085H8.77313C9.97022 20.5241 11.8459 21.5 13.9545 21.5C17.5695 21.5 20.5 18.6316 20.5 15.0932C20.5 12.7218 19.1837 10.6513 17.2273 9.54356ZM3.77273 4.77119C3.77273 4.37802 4.09834 4.05932 4.5 4.05932H13.2273C13.6289 4.05932 13.9545 4.37802 13.9545 4.77119C13.9545 5.16435 13.6289 5.48305 13.2273 5.48305H4.5C4.09834 5.48305 3.77273 5.16435 3.77273 4.77119ZM3.77273 7.97458C3.77273 7.58141 4.09834 7.26271 4.5 7.26271H9.95455C10.3562 7.26271 10.6818 7.58141 10.6818 7.97458C10.6818 8.36774 10.3562 8.68644 9.95455 8.68644H4.5C4.09834 8.68644 3.77273 8.36774 3.77273 7.97458ZM4.5 10.4661C4.09834 10.4661 3.77273 10.7848 3.77273 11.178C3.77273 11.5711 4.09834 11.8898 4.5 11.8898H6.31818C6.71985 11.8898 7.04545 11.5711 7.04545 11.178C7.04545 10.7848 6.71985 10.4661 6.31818 10.4661H4.5ZM13.3 12.5305C13.3 12.1767 13.5931 11.8898 13.9545 11.8898C14.316 11.8898 14.6091 12.1767 14.6091 12.5305V14.4525H16.5727C16.9342 14.4525 17.2273 14.7394 17.2273 15.0932C17.2273 15.4471 16.9342 15.7339 16.5727 15.7339H14.6091V17.6559C14.6091 18.0098 14.316 18.2966 13.9545 18.2966C13.5931 18.2966 13.3 18.0098 13.3 17.6559V15.7339H11.3364C10.9749 15.7339 10.6818 15.4471 10.6818 15.0932C10.6818 14.7394 10.9749 14.4525 11.3364 14.4525H13.3V12.5305Z" fill="#202020"/>
</g>
<defs>
<clipPath id="clip0_344_1423">
<rect width="20" height="21" fill="white" transform="translate(0.5 0.5)"/>
</clipPath>
</defs>
</svg>
