<svg width="25" height="24" viewBox="0 0 25 24" fill="none" xmlns="http://www.w3.org/2000/svg">
<path fill-rule="evenodd" clip-rule="evenodd" d="M19.5 11C19.5 12.5723 18.9816 14.0236 18.1064 15.1922L22.1569 19.2426C22.5474 19.6331 22.5474 20.2663 22.1569 20.6568C21.7663 21.0473 21.1332 21.0473 20.7426 20.6568L16.6922 16.6064C15.5236 17.4816 14.0723 18 12.5 18V16C15.2614 16 17.5 13.7614 17.5 11C17.5 8.23858 15.2614 6 12.5 6C9.73858 6 7.5 8.23858 7.5 11H5.5C5.5 7.13401 8.63401 4 12.5 4C16.366 4 19.5 7.13401 19.5 11ZM11.5 16C11.5 18.2091 9.70914 20 7.5 20C5.29086 20 3.5 18.2091 3.5 16C3.5 13.7909 5.29086 12 7.5 12C9.70914 12 11.5 13.7909 11.5 16ZM8.00037 14.5C8.00037 14.2239 7.77651 14 7.50037 14C7.22422 14 7.00037 14.2239 7.00037 14.5V15.4999H6C5.72386 15.4999 5.5 15.7238 5.5 15.9999C5.5 16.2761 5.72386 16.4999 6 16.4999H7.00037V17.5C7.00037 17.7761 7.22422 18 7.50037 18C7.77651 18 8.00037 17.7761 8.00037 17.5V16.4999H9C9.27614 16.4999 9.5 16.2761 9.5 15.9999C9.5 15.7238 9.27614 15.4999 9 15.4999H8.00037V14.5Z" fill="#A2A2A2"/>
</svg>
