<svg width="13" height="13" viewBox="0 0 13 13" fill="none" xmlns="http://www.w3.org/2000/svg">
<path d="M0.8125 0H4.875C5.3233 0 5.6875 0.363998 5.6875 0.8125V4.875C5.6875 5.3235 5.3233 5.6875 4.875 5.6875H0.8125C0.364197 5.6875 0 5.3235 0 4.875V0.8125C0 0.363998 0.364197 0 0.8125 0Z" fill="#202020"/>
<path d="M0.8125 7.3125H4.875C5.3233 7.3125 5.6875 7.6765 5.6875 8.125V12.1875C5.6875 12.636 5.3233 13 4.875 13H0.8125C0.364197 13 0 12.636 0 12.1875V8.125C0 7.6765 0.364197 7.3125 0.8125 7.3125Z" fill="#202020"/>
<path d="M12.1875 0H8.125C7.6767 0 7.3125 0.363998 7.3125 0.8125V4.875C7.3125 5.3235 7.6767 5.6875 8.125 5.6875H12.1875C12.6358 5.6875 13 5.3235 13 4.875V0.8125C13 0.363998 12.6358 0 12.1875 0Z" fill="#202020"/>
<path d="M8.125 7.3125H12.1875C12.6358 7.3125 13 7.6765 13 8.125V12.1875C13 12.636 12.6358 13 12.1875 13H8.125C7.6767 13 7.3125 12.636 7.3125 12.1875V8.125C7.3125 7.6765 7.6767 7.3125 8.125 7.3125Z" fill="#202020"/>
</svg>
