<svg width="20" height="20" viewBox="0 0 20 20" fill="none" xmlns="http://www.w3.org/2000/svg">
<path d="M5.33123 6.345C5.03852 6.16206 4.65292 6.25104 4.46998 6.54375C4.28703 6.83646 4.37602 7.22205 4.66873 7.405L9.66873 10.53C9.8714 10.6567 10.1286 10.6567 10.3312 10.53L15.3312 7.405C15.624 7.22206 15.7129 6.83646 15.53 6.54375C15.3471 6.25104 14.9615 6.16206 14.6688 6.345L9.99998 9.26297L5.33123 6.345Z" fill="#D7D7D7"/>
<path d="M7.25 10.125C7.52614 10.3321 7.58211 10.7239 7.375 11L5.5 13.5C5.29289 13.7761 4.90114 13.8321 4.625 13.625C4.34886 13.4179 4.29289 13.0261 4.5 12.75L6.375 10.25C6.58211 9.97386 6.97386 9.91789 7.25 10.125Z" fill="#D7D7D7"/>
<path d="M12.625 11C12.4179 10.7239 12.4739 10.3321 12.75 10.125C13.0261 9.91789 13.4179 9.97386 13.625 10.25L15.5 12.75C15.7071 13.0261 15.6511 13.4179 15.375 13.625C15.0989 13.8321 14.7071 13.7761 14.5 13.5L12.625 11Z" fill="#D7D7D7"/>
<path fill-rule="evenodd" clip-rule="evenodd" d="M4.375 3.75C2.99429 3.75 1.875 4.86929 1.875 6.25V13.75C1.875 15.1307 2.99429 16.25 4.375 16.25H15.625C17.0057 16.25 18.125 15.1307 18.125 13.75V6.25C18.125 4.86929 17.0057 3.75 15.625 3.75H4.375ZM3.125 6.25C3.125 5.55964 3.68464 5 4.375 5H15.625C16.3154 5 16.875 5.55964 16.875 6.25V13.75C16.875 14.4404 16.3154 15 15.625 15H4.375C3.68464 15 3.125 14.4404 3.125 13.75V6.25Z" fill="#D7D7D7"/>
</svg>
