<svg width="16" height="17" viewBox="0 0 16 17" fill="none" xmlns="http://www.w3.org/2000/svg">
<path d="M14 16.5H2C0.896875 16.5 0 15.6031 0 14.5V2.5C0 1.39688 0.896875 0.5 2 0.5H9C10.3344 0.5 10.3344 2.5 9 2.5H2V14.5H14V9.5C14 8.16563 16 8.16563 16 9.5V14.5C16 15.6031 15.1031 16.5 14 16.5Z" fill="#EFEFEF"/>
<path d="M13.2407 2.8375L7.94379 9.02812L5.70629 6.7875C4.79692 5.88438 3.38442 7.3 4.29379 8.20312L7.29379 11.2063C7.47504 11.3875 7.72504 11.5 8.00004 11.5C8.30317 11.5 8.57504 11.3625 8.75942 11.15L14.7594 4.1375C15.5907 3.16875 14.0719 1.87813 13.2407 2.8375Z" fill="#EFEFEF"/>
</svg>
