<svg width="25" height="24" viewBox="0 0 25 24" fill="none" xmlns="http://www.w3.org/2000/svg">
<path fill-rule="evenodd" clip-rule="evenodd" d="M12.4998 2.25C10.0145 2.25 7.99979 4.26472 7.99979 6.75C7.99979 9.23528 10.0145 11.25 12.4998 11.25C14.9851 11.25 16.9998 9.23528 16.9998 6.75C16.9998 4.26472 14.9851 2.25 12.4998 2.25ZM9.49979 6.75C9.49979 5.09315 10.8429 3.75 12.4998 3.75C14.1566 3.75 15.4998 5.09315 15.4998 6.75C15.4998 8.40685 14.1566 9.75 12.4998 9.75C10.8429 9.75 9.49979 8.40685 9.49979 6.75Z" fill="#A2A2A2"/>
<path fill-rule="evenodd" clip-rule="evenodd" d="M12.4998 12C9.04711 12 6.91247 13.074 5.66298 14.6121C4.43789 16.1202 4.17408 17.9419 4.17042 19.2354C4.16602 20.7895 5.517 21.75 6.86886 21.75H18.1307C19.4826 21.75 20.8336 20.7895 20.8292 19.2354C20.8255 17.9419 20.5617 16.1202 19.3366 14.6121C18.0871 13.074 15.9525 12 12.4998 12ZM5.67041 19.2396C5.67361 18.1099 5.90939 16.6878 6.82724 15.5579C7.72068 14.4581 9.3723 13.5 12.4998 13.5C15.6273 13.5 17.2789 14.4581 18.1723 15.5579C19.0902 16.6878 19.326 18.1099 19.3292 19.2396C19.3307 19.7686 18.862 20.25 18.1307 20.25H6.86886C6.1376 20.25 5.66892 19.7686 5.67041 19.2396Z" fill="#A2A2A2"/>
</svg>
