<svg width="21" height="20" viewBox="0 0 21 20" fill="none" xmlns="http://www.w3.org/2000/svg">
<path fill-rule="evenodd" clip-rule="evenodd" d="M19 10C19 14.6944 15.1944 18.5 10.5 18.5C5.8056 18.5 2 14.6944 2 10C2 5.3056 5.8056 1.5 10.5 1.5C15.1944 1.5 19 5.3056 19 10ZM20.5 10C20.5 15.5229 16.0229 20 10.5 20C4.97715 20 0.5 15.5229 0.5 10C0.5 4.47715 4.97715 0 10.5 0C16.0229 0 20.5 4.47715 20.5 10ZM14.814 7.9944C15.0871 7.6829 15.0559 7.20905 14.7444 6.936C14.4329 6.66295 13.9591 6.69415 13.686 7.0056L9.18405 12.1414L7.04055 9.913C6.7534 9.61445 6.2786 9.60525 5.98005 9.8924C5.68155 10.1796 5.6723 10.6543 5.95945 10.9529L8.66915 13.7699C8.8147 13.9213 9.0171 14.0047 9.227 13.9998C9.43695 13.9949 9.63525 13.9023 9.77365 13.7444L14.814 7.9944Z" fill="#EFEFEF"/>
</svg>
