<svg width="18" height="17" viewBox="0 0 18 17" fill="none" xmlns="http://www.w3.org/2000/svg">
<path fill-rule="evenodd" clip-rule="evenodd" d="M0.101074 1.49097C0.101074 0.938682 0.548789 0.490967 1.10107 0.490967H16.8989C17.4512 0.490967 17.8989 0.938682 17.8989 1.49097V15.509C17.8989 16.0613 17.4512 16.509 16.8989 16.509H1.10107C0.548789 16.509 0.101074 16.0613 0.101074 15.509V1.49097ZM1.88108 6.33021C1.88108 6.05407 2.10494 5.83021 2.38108 5.83021H15.6194C15.8955 5.83021 16.1194 6.05407 16.1194 6.33021V14.2291C16.1194 14.5053 15.8955 14.7291 15.6194 14.7291H2.38108C2.10494 14.7291 1.88108 14.5053 1.88108 14.2291V6.33021ZM2.38108 2.27066C2.10494 2.27066 1.88108 2.49452 1.88108 2.77066V3.55045C1.88108 3.82659 2.10494 4.05045 2.38108 4.05045H15.6194C15.8955 4.05045 16.1194 3.82659 16.1194 3.55045V2.77066C16.1194 2.49452 15.8955 2.27066 15.6194 2.27066H2.38108ZM3.66072 7.81014C3.66072 7.69968 3.75026 7.61014 3.86072 7.61014H4.79556C4.90601 7.61014 4.99556 7.69968 4.99556 7.81014V8.74498C4.99556 8.85544 4.90601 8.94498 4.79556 8.94498H3.86072C3.75026 8.94498 3.66072 8.85544 3.66072 8.74498V7.81014ZM3.86072 11.1697C3.75026 11.1697 3.66072 11.2592 3.66072 11.3697V12.3045C3.66072 12.415 3.75026 12.5045 3.86072 12.5045H4.79556C4.90601 12.5045 4.99556 12.415 4.99556 12.3045V11.3697C4.99556 11.2592 4.90601 11.1697 4.79556 11.1697H3.86072ZM6.77545 7.81014C6.77545 7.69968 6.865 7.61014 6.97545 7.61014H7.91029C8.02075 7.61014 8.11029 7.69968 8.11029 7.81014V8.74498C8.11029 8.85544 8.02075 8.94498 7.91029 8.94498H6.97545C6.865 8.94498 6.77545 8.85544 6.77545 8.74498V7.81014ZM6.97545 11.1697C6.865 11.1697 6.77545 11.2592 6.77545 11.3697V12.3045C6.77545 12.415 6.865 12.5045 6.97545 12.5045H7.91029C8.02075 12.5045 8.11029 12.415 8.11029 12.3045V11.3697C8.11029 11.2592 8.02075 11.1697 7.91029 11.1697H6.97545ZM9.89 7.81014C9.89 7.69968 9.97955 7.61014 10.09 7.61014H11.0248C11.1353 7.61014 11.2248 7.69968 11.2248 7.81014V8.74498C11.2248 8.85544 11.1353 8.94498 11.0248 8.94498H10.09C9.97955 8.94498 9.89 8.85544 9.89 8.74498V7.81014ZM10.09 11.1697C9.97955 11.1697 9.89 11.2592 9.89 11.3697V12.3045C9.89 12.415 9.97955 12.5045 10.09 12.5045H11.0248C11.1353 12.5045 11.2248 12.415 11.2248 12.3045V11.3697C11.2248 11.2592 11.1353 11.1697 11.0248 11.1697H10.09ZM13.0044 7.81014C13.0044 7.69968 13.0939 7.61014 13.2044 7.61014H14.1392C14.2497 7.61014 14.3392 7.69968 14.3392 7.81014V8.74498C14.3392 8.85544 14.2497 8.94498 14.1392 8.94498H13.2044C13.0939 8.94498 13.0044 8.85544 13.0044 8.74498V7.81014ZM13.2044 11.1697C13.0939 11.1697 13.0044 11.2592 13.0044 11.3697V12.3045C13.0044 12.415 13.0939 12.5045 13.2044 12.5045H14.1392C14.2497 12.5045 14.3392 12.415 14.3392 12.3045V11.3697C14.3392 11.2592 14.2497 11.1697 14.1392 11.1697H13.2044Z" fill="#202020"/>
</svg>
