<svg width="25" height="24" viewBox="0 0 25 24" fill="none" xmlns="http://www.w3.org/2000/svg">
<path fill-rule="evenodd" clip-rule="evenodd" d="M21.5 21V3C21.5 2.44775 21.0522 2 20.5 2H6.5C5.94775 2 5.5 2.44775 5.5 3V6H4C3.72388 6 3.5 6.22388 3.5 6.5V7C3.5 7.27612 3.72388 7.5 4 7.5H5.5V11H4C3.72388 11 3.5 11.2239 3.5 11.5V12C3.5 12.2761 3.72388 12.5 4 12.5H5.5V16H4C3.72388 16 3.5 16.2239 3.5 16.5V17C3.5 17.2761 3.72388 17.5 4 17.5H5.5V21C5.5 21.5522 5.94775 22 6.5 22H20.5C21.0522 22 21.5 21.5522 21.5 21ZM20 20.2C20 20.3657 19.8657 20.5 19.7 20.5H7.3C7.13432 20.5 7 20.3657 7 20.2V17.5H8C8.27612 17.5 8.5 17.2761 8.5 17V16.5C8.5 16.2239 8.27612 16 8 16H7V12.5H8C8.27612 12.5 8.5 12.2761 8.5 12V11.5C8.5 11.2239 8.27612 11 8 11H7V7.5H8C8.27612 7.5 8.5 7.27612 8.5 7V6.5C8.5 6.22388 8.27612 6 8 6H7V3.8C7 3.63431 7.13431 3.5 7.3 3.5H19.7C19.8657 3.5 20 3.63431 20 3.8V20.2ZM11 7H17C17.2761 7 17.5 7.22388 17.5 7.5V12.5C17.5 12.7761 17.2761 13 17 13H11C10.7239 13 10.5 12.7761 10.5 12.5V7.5C10.5 7.22388 10.7239 7 11 7ZM12 11.5V8.5H16V11.5H12Z" fill="#A2A2A2"/>
</svg>
