<svg width="28" height="28" viewBox="0 0 28 28" fill="none" xmlns="http://www.w3.org/2000/svg">
<circle cx="14" cy="14" r="13.5" stroke="#717171"/>
<g clip-path="url(#clip0_202_902)">
<path fill-rule="evenodd" clip-rule="evenodd" d="M16.2909 8.88136H9.74545C9.26346 8.88136 8.87273 9.27595 8.87273 9.76271V17.6949C8.87273 18.1817 9.26346 18.5763 9.74545 18.5763H12.4535C12.2551 18.1021 12.1455 17.581 12.1455 17.0339C12.1455 14.8435 13.9038 13.0678 16.0727 13.0678C16.4513 13.0678 16.8173 13.1219 17.1636 13.2228V9.76271C17.1636 9.27595 16.7729 8.88136 16.2909 8.88136ZM18.0364 13.5984V9.76271C18.0364 8.78919 17.2549 8 16.2909 8H9.74545C8.78147 8 8 8.78919 8 9.76271V17.6949C8 18.6684 8.78147 19.4576 9.74545 19.4576H12.9639C13.6821 20.3959 14.8076 21 16.0727 21C18.2417 21 20 19.2243 20 17.0339C20 15.5659 19.2102 14.2842 18.0364 13.5984ZM9.96364 10.6441C9.96364 10.4007 10.159 10.2034 10.4 10.2034H15.6364C15.8774 10.2034 16.0727 10.4007 16.0727 10.6441C16.0727 10.8875 15.8774 11.0847 15.6364 11.0847H10.4C10.159 11.0847 9.96364 10.8875 9.96364 10.6441ZM9.96364 12.6271C9.96364 12.3837 10.159 12.1864 10.4 12.1864H13.6727C13.9137 12.1864 14.1091 12.3837 14.1091 12.6271C14.1091 12.8705 13.9137 13.0678 13.6727 13.0678H10.4C10.159 13.0678 9.96364 12.8705 9.96364 12.6271ZM10.4 14.1695C10.159 14.1695 9.96364 14.3668 9.96364 14.6102C9.96364 14.8536 10.159 15.0508 10.4 15.0508H11.4909C11.7319 15.0508 11.9273 14.8536 11.9273 14.6102C11.9273 14.3668 11.7319 14.1695 11.4909 14.1695H10.4ZM15.68 15.4475C15.68 15.2284 15.8558 15.0508 16.0727 15.0508C16.2896 15.0508 16.4655 15.2284 16.4655 15.4475V16.6373H17.6436C17.8605 16.6373 18.0364 16.8149 18.0364 17.0339C18.0364 17.2529 17.8605 17.4305 17.6436 17.4305H16.4655V18.6203C16.4655 18.8394 16.2896 19.0169 16.0727 19.0169C15.8558 19.0169 15.68 18.8394 15.68 18.6203V17.4305H14.5018C14.2849 17.4305 14.1091 17.2529 14.1091 17.0339C14.1091 16.8149 14.2849 16.6373 14.5018 16.6373H15.68V15.4475Z" fill="#D2D2D2"/>
</g>
<defs>
<clipPath id="clip0_202_902">
<rect width="12" height="13" fill="white" transform="translate(8 8)"/>
</clipPath>
</defs>
</svg>
