<svg width="20" height="20" viewBox="0 0 20 20" fill="none" xmlns="http://www.w3.org/2000/svg">
<path d="M10.625 13.5828C10.9986 13.3666 11.25 12.9627 11.25 12.5C11.25 11.8096 10.6904 11.25 10 11.25C9.30964 11.25 8.75 11.8096 8.75 12.5C8.75 12.9627 9.00137 13.3666 9.375 13.5828V15C9.375 15.3452 9.65482 15.625 10 15.625C10.3452 15.625 10.625 15.3452 10.625 15V13.5828Z" fill="#D7D7D7"/>
<path fill-rule="evenodd" clip-rule="evenodd" d="M6.25 8.125V5.625C6.25 3.55393 7.92893 1.875 10 1.875C12.0711 1.875 13.75 3.55393 13.75 5.625V8.125H15C16.3807 8.125 17.5 9.24429 17.5 10.625V15.625C17.5 17.0057 16.3807 18.125 15 18.125H5C3.61929 18.125 2.5 17.0057 2.5 15.625V10.625C2.5 9.24429 3.61929 8.125 5 8.125H6.25ZM7.5 5.625C7.5 4.24429 8.61929 3.125 10 3.125C11.3807 3.125 12.5 4.24429 12.5 5.625V8.125H7.5V5.625ZM3.75 10.625C3.75 9.93464 4.30964 9.375 5 9.375H15C15.6904 9.375 16.25 9.93464 16.25 10.625V15.625C16.25 16.3154 15.6904 16.875 15 16.875H5C4.30964 16.875 3.75 16.3154 3.75 15.625V10.625Z" fill="#D7D7D7"/>
</svg>
