<svg width="20" height="20" viewBox="0 0 20 20" fill="none" xmlns="http://www.w3.org/2000/svg">
<path d="M10 13.125C10.3452 13.125 10.625 13.4048 10.625 13.75V14.375C10.625 14.7202 10.3452 15 10 15C9.65482 15 9.375 14.7202 9.375 14.375V13.75C9.375 13.4048 9.65482 13.125 10 13.125Z" fill="#E26060"/>
<path d="M10 5C9.61937 5 9.27267 5.22178 9.13602 5.57703C8.95958 6.03572 8.75 6.66438 8.75 7.0625C8.74999 8.52645 9.06488 10.3368 9.24764 11.2642C9.31832 11.6229 9.63443 11.875 10 11.875C10.3656 11.875 10.6817 11.6229 10.7524 11.2642C10.9351 10.3368 11.25 8.52645 11.25 7.0625C11.25 6.66438 11.0404 6.03572 10.864 5.57703C10.7273 5.22178 10.3806 5 10 5Z" fill="#E26060"/>
<path fill-rule="evenodd" clip-rule="evenodd" d="M10 1.875C5.51269 1.875 1.875 5.51269 1.875 10C1.875 14.4873 5.51269 18.125 10 18.125C14.4873 18.125 18.125 14.4873 18.125 10C18.125 5.51269 14.4873 1.875 10 1.875ZM3.125 10C3.125 6.20304 6.20304 3.125 10 3.125C13.797 3.125 16.875 6.20304 16.875 10C16.875 13.797 13.797 16.875 10 16.875C6.20304 16.875 3.125 13.797 3.125 10Z" fill="#E26060"/>
</svg>
