<svg width="16" height="16" viewBox="0 0 16 16" fill="none" xmlns="http://www.w3.org/2000/svg">
<path d="M8 12C9.10461 12 10 12.8955 10 14C10 15.1045 9.10461 16 8 16C6.89539 16 6 15.1045 6 14C6 12.8955 6.89539 12 8 12Z" fill="#CECECE"/>
<path d="M8 6C9.10461 6 10 6.89551 10 8C10 9.10449 9.10461 10 8 10C6.89539 10 6 9.10449 6 8C6 6.89551 6.89539 6 8 6Z" fill="#CECECE"/>
<path d="M10 2C10 0.895508 9.10461 0 8 0C6.89539 0 6 0.895508 6 2C6 3.10449 6.89539 4 8 4C9.10461 4 10 3.10449 10 2Z" fill="#CECECE"/>
</svg>
