<svg width="16" height="17" viewBox="0 0 16 17" fill="none" xmlns="http://www.w3.org/2000/svg">
<path fill-rule="evenodd" clip-rule="evenodd" d="M7 2.5C4.23858 2.5 2 4.73858 2 7.5C2 10.2614 4.23858 12.5 7 12.5C8.20063 12.5 9.30243 12.0768 10.1644 11.3715L13.1464 14.3536C13.3417 14.5488 13.6583 14.5488 13.8536 14.3536C14.0488 14.1583 14.0488 13.8417 13.8536 13.6464L10.8715 10.6644C11.5768 9.80243 12 8.70063 12 7.5C12 4.73858 9.76142 2.5 7 2.5ZM3 7.5C3 5.29086 4.79086 3.5 7 3.5C9.20914 3.5 11 5.29086 11 7.5C11 9.70914 9.20914 11.5 7 11.5C4.79086 11.5 3 9.70914 3 7.5Z" fill="#EFEFEF"/>
</svg>
